<?xml version="1.0" encoding="utf-8"?>
<!-- Generator: Adobe Illustrator 22.1.0, SVG Export Plug-In . SVG Version: 6.00 Build 0)  -->
<svg version="1.1" id="Layer_1" xmlns="http://www.w3.org/2000/svg" xmlns:xlink="http://www.w3.org/1999/xlink" x="0px" y="0px"
	 viewBox="0 0 409.6 409.6" style="enable-background:new 0 0 409.6 409.6;" xml:space="preserve">
	 <style>
	path {
		fill: #fdc31d;
	}
</style>
<path d="M204.8,0C91.7,0,0,91.7,0,204.8c0,113.1,91.7,204.8,204.8,204.8c113.1,0,204.8-91.7,204.8-204.8C409.6,91.7,317.9,0,204.8,0
	z M204.8,384C106,384,25.6,303.6,25.6,204.8S106,25.6,204.8,25.6S384,106,384,204.8S303.6,384,204.8,384z"/>
<g>
	<path d="M324,263.7c0,5.2-1.5,10-3.8,14.3l-75-83.9l74.2-64.9c2.9,4.6,4.6,10,4.6,15.8V263.7z M205.2,209.3L308.4,119
		c-4.2-2.3-9-3.7-14.2-3.7H116.1c-5.2,0-9.9,1.4-14.1,3.7L205.2,209.3z M234,203.9l-23.9,20.9c-1.4,1.2-3.1,1.8-4.9,1.8
		c-1.7,0-3.5-0.6-4.9-1.8l-23.9-20.9l-76,85c4.6,2.9,9.9,4.6,15.7,4.6h178.2c5.8,0,11.1-1.7,15.7-4.6L234,203.9z M91,129.2
		c-2.9,4.6-4.6,10-4.6,15.8v118.8c0,5.2,1.5,10,3.8,14.3l75-84L91,129.2z M91,129.2"/>
</g>
</svg>
