<?xml version="1.0" encoding="utf-8"?>
<!-- Generator: Adobe Illustrator 22.1.0, SVG Export Plug-In . SVG Version: 6.00 Build 0)  -->


<svg version="1.1" id="Layer_1" xmlns="http://www.w3.org/2000/svg" xmlns:xlink="http://www.w3.org/1999/xlink" x="0px" y="0px"
	 viewBox="0 0 409.6 410.7" style="enable-background:new 0 0 409.6 410.7;" xml:space="preserve">
	 <style>
	path {
		fill: #fdc31d;
	}
</style>
<path d="M204.8,1.1C91.7,1.1,0,92.8,0,205.9C0,319,91.7,410.7,204.8,410.7c113.1,0,204.8-91.7,204.8-204.8
	C409.6,92.8,317.9,1.1,204.8,1.1z M204.8,385.1c-98.8,0-179.2-80.4-179.2-179.2S106,26.7,204.8,26.7S384,107.1,384,205.9
	S303.6,385.1,204.8,385.1z"/>
<g>
	<path d="M144.3,278.3v45h120.1v-75H144.3V278.3z M159.3,263.3h90v15h-90V263.3z M159.3,293.3h90v15h-90V293.3z M159.3,293.3"/>
	<path d="M264.4,143.2v-45H144.3v75h120.1V143.2z M264.4,143.2"/>
	<path d="M294.3,143.2h-15v45.1h-150v-45.1h-14.9c-15,0-30,15-30,30v75c0,15,15,30,30,30h14.9v-45.1h150v45.1h15c15,0,30-15,30-30
		v-75C324.4,158.3,309.3,143.2,294.3,143.2L294.3,143.2z M294.3,143.2"/>
</g>
</svg>
