<?xml version="1.0" encoding="utf-8"?>
<!-- Generator: Adobe Illustrator 22.1.0, SVG Export Plug-In . SVG Version: 6.00 Build 0)  -->
<svg version="1.1" id="Layer_1" xmlns="http://www.w3.org/2000/svg" xmlns:xlink="http://www.w3.org/1999/xlink" x="0px" y="0px"
	 viewBox="0 0 410.4 411.6" style="enable-background:new 0 0 410.4 411.6;" xml:space="preserve">
	 <style>
	path {
		fill: #fdc31d;
	}
</style>
<g>
	<path d="M205.6,27.6c98.8,0,179.2,80.4,179.2,179.2S304.4,386,205.6,386S26.4,305.6,26.4,206.8S106.8,27.6,205.6,27.6 M205.6,2
		C92.5,2,0.8,93.7,0.8,206.8c0,113.1,91.7,204.8,204.8,204.8c113.1,0,204.8-91.7,204.8-204.8C410.4,93.7,318.7,2,205.6,2L205.6,2z
		 M319.8,275.3l-1.2-3.5c-2.7-8-11.6-16.4-19.8-18.7l-30.3-8.3c-8.2-2.2-19.9,0.8-25.9,6.8l-10.9,10.9c-39.8-10.8-71-42-81.8-81.8
		l10.9-10.9c6-6,9-17.7,6.8-25.9l-8.2-30.3c-2.2-8.2-10.7-17.1-18.7-19.8l-3.5-1.2c-8.1-2.7-19.6,0-25.6,6.1l-16.4,16.4
		c-2.9,2.9-4.8,11.2-4.8,11.2c-0.6,52,19.8,102.2,56.6,139c36.7,36.7,86.7,57.1,138.5,56.6c0.3,0,8.9-1.8,11.8-4.8l16.4-16.4
		C319.7,294.9,322.4,283.3,319.8,275.3L319.8,275.3z M319.8,275.3"/>
</g>
</svg>
